<?xml version="1.0" encoding="UTF-8"?>
<svg width="600" height="600" viewBox="0 0 600 600" fill="none" xmlns="http://www.w3.org/2000/svg">
  <!-- Background Elements -->
  <circle cx="300" cy="300" r="250" fill="url(#gradient1)" opacity="0.1"/>
  <circle cx="300" cy="300" r="200" stroke="white" stroke-width="2" opacity="0.2"/>
  
  <!-- Central Building -->
  <path d="M250 200H350L400 300V450H200V300L250 200Z" fill="#8F6ED5" opacity="0.3"/>
  <path d="M275 250H325L350 300V400H250V300L275 250Z" fill="white" opacity="0.2"/>
  
  <!-- Connected Nodes -->
  <circle cx="200" cy="200" r="20" fill="#8F6ED5"/>
  <circle cx="400" cy="200" r="20" fill="#8F6ED5"/>
  <circle cx="150" cy="350" r="20" fill="#8F6ED5"/>
  <circle cx="450" cy="350" r="20" fill="#8F6ED5"/>
  
  <!-- Connecting Lines -->
  <path d="M200 200L300 300L400 200" stroke="white" stroke-width="2"/>
  <path d="M150 350L300 300L450 350" stroke="white" stroke-width="2"/>
  
  <!-- Decorative Elements -->
  <circle cx="300" cy="300" r="30" fill="white"/>
  <circle cx="300" cy="300" r="25" fill="#8F6ED5"/>
  
  <!-- Gradient Definition -->
  <defs>
    <radialGradient id="gradient1" cx="0" cy="0" r="1" gradientUnits="userSpaceOnUse" gradientTransform="translate(300 300) rotate(90) scale(250)">
      <stop offset="0%" stop-color="#8F6ED5"/>
      <stop offset="100%" stop-color="#8F6ED5" stop-opacity="0"/>
    </radialGradient>
  </defs>
</svg> 