<?xml version="1.0" encoding="UTF-8"?>
<!DOCTYPE svg PUBLIC "-//W3C//DTD SVG 1.1//EN" "http://www.w3.org/Graphics/SVG/1.1/DTD/svg11.dtd">
<svg xmlns="http://www.w3.org/2000/svg" version="1.1" width="760px" height="786px" style="shape-rendering:geometricPrecision; text-rendering:geometricPrecision; image-rendering:optimizeQuality; fill-rule:evenodd; clip-rule:evenodd" xmlns:xlink="http://www.w3.org/1999/xlink">
<g><path style="opacity:0.004" fill="#fefffe" d="M 425.5,86.5 C 425.897,85.475 426.563,85.3083 427.5,86C 426.906,86.4643 426.239,86.631 425.5,86.5 Z"/></g>
<g><path style="opacity:0.018" fill="#f4f3f3" d="M 442.5,89.5 C 443.274,88.8529 444.274,88.5195 445.5,88.5C 460.156,91.497 474.823,94.497 489.5,97.5C 491.948,98.529 494.614,99.1957 497.5,99.5C 500.12,99.0796 502.786,98.7463 505.5,98.5C 506.262,99.6283 506.929,100.795 507.5,102C 556.869,113.049 605.869,124.216 654.5,135.5C 655.086,135.291 655.586,134.957 656,134.5C 656.249,135.624 656.749,136.624 657.5,137.5C 659.409,136.652 661.409,136.318 663.5,136.5C 663.928,139.246 665.594,140.913 668.5,141.5C 670.373,140.911 672.04,141.578 673.5,143.5C 675.875,148.354 678.542,153.021 681.5,157.5C 681.277,158.967 680.944,160.467 680.5,162C 681.227,163.399 681.727,164.899 682,166.5C 682.889,165.112 683.389,165.278 683.5,167C 683.355,167.772 683.022,168.439 682.5,169C 683.802,173.078 684.802,177.245 685.5,181.5C 684.203,179.629 683.203,177.629 682.5,175.5C 681.041,168.288 678.874,161.288 676,154.5C 672.488,148.815 667.655,144.815 661.5,142.5C 654.167,138.219 646.167,135.386 637.5,134C 572.518,118.949 507.518,104.116 442.5,89.5 Z"/></g>
<g><path style="opacity:0.029" fill="#f8f8f7" d="M 441.5,89.5 C 416.017,88.4951 394.85,97.4951 378,116.5C 360.67,141.989 343.17,167.322 325.5,192.5C 243.022,310.767 160.522,429.1 78,547.5C 71.9837,556.06 68.4837,565.56 67.5,576C 67.9354,580.242 68.7687,584.409 70,588.5C 70.4238,591.025 71.5905,593.025 73.5,594.5C 73.8925,596.284 74.5592,597.95 75.5,599.5C 76.8201,602.14 78.1534,604.807 79.5,607.5C 76.5,607.833 75.1667,606.5 75.5,603.5C 74.5,603.5 73.5,603.5 72.5,603.5C 73.874,599.552 72.874,596.219 69.5,593.5C 67.8539,587.775 66.5206,581.941 65.5,576C 66.6984,572.472 66.6984,568.972 65.5,565.5C 67.3082,561.658 68.8082,557.658 70,553.5C 73.9731,545.526 78.3064,537.86 83,530.5C 92.7174,518.45 102.051,506.117 111,493.5C 116.585,483.925 122.918,474.925 130,466.5C 137.659,454.52 145.326,442.52 153,430.5C 156.531,427.975 158.865,424.641 160,420.5C 166.635,411.696 173.468,403.029 180.5,394.5C 180.291,393.914 179.957,393.414 179.5,393C 208.315,353.48 236.482,313.313 264,272.5C 301.535,218.314 339.202,164.648 377,111.5C 380.399,107.355 384.233,103.688 388.5,100.5C 390.329,101.282 391.829,100.616 393,98.5C 393.483,97.552 393.649,96.552 393.5,95.5C 397.29,96.1008 400.456,95.1008 403,92.5C 403.561,93.0219 404.228,93.3552 405,93.5C 409.284,92.2765 413.284,90.6098 417,88.5C 425.249,88.3966 433.416,88.73 441.5,89.5 Z"/></g>
<g><path style="opacity:0.004" fill="#fefffe" d="M 489.5,97.5 C 489.639,95.663 490.306,95.3296 491.5,96.5C 491.043,97.2975 490.376,97.6309 489.5,97.5 Z"/></g>
<g><path style="opacity:0.796" fill="#525256" d="M 441.5,89.5 C 441.833,89.5 442.167,89.5 442.5,89.5C 507.518,104.116 572.518,118.949 637.5,134C 646.167,135.386 654.167,138.219 661.5,142.5C 661.5,143.167 661.5,143.833 661.5,144.5C 655.754,141.727 649.754,139.56 643.5,138C 577.157,122.998 510.823,107.998 444.5,93C 421.588,90.5112 401.754,97.0112 385,112.5C 364.986,139.883 345.486,167.549 326.5,195.5C 326.443,194.391 326.11,193.391 325.5,192.5C 343.17,167.322 360.67,141.989 378,116.5C 394.85,97.4951 416.017,88.4951 441.5,89.5 Z"/></g>
<g><path style="opacity:0.03" fill="#f8f8f8" d="M 490.5,458.5 C 449.561,524.613 408.394,590.613 367,656.5C 351.292,672.305 332.459,677.972 310.5,673.5C 240.227,646.876 169.56,621.042 98.5,596C 84.4367,588.357 79.9367,576.857 85,561.5C 87.3333,557.167 89.6667,552.833 92,548.5C 103.472,532.874 114.305,516.874 124.5,500.5C 211.86,375.955 298.693,250.955 385,125.5C 400.156,103.108 420.989,95.2751 447.5,102C 456.855,104.172 466.188,106.339 475.5,108.5C 474.32,113.032 472.987,117.532 471.5,122C 471.575,125.417 473.241,127.75 476.5,129C 511.75,138.193 547.25,146.36 583,153.5C 592.742,153.381 599.575,148.881 603.5,140C 621.135,141.142 638.135,145.142 654.5,152C 663.182,158.31 666.015,166.81 663,177.5C 660.667,182.167 658.333,186.833 656,191.5C 600.822,280.528 545.656,369.528 490.5,458.5 Z M 517.5,146.5 C 517.833,147.833 518.167,147.833 518.5,146.5C 519.833,146.5 521.167,146.5 522.5,146.5C 522.351,145.448 522.517,144.448 523,143.5C 524.02,144.891 524.853,146.391 525.5,148C 527.433,148.251 529.266,148.751 531,149.5C 532,148.167 533,148.167 534,149.5C 534.333,148.5 534.667,147.5 535,146.5C 535.23,150.213 536.397,150.88 538.5,148.5C 539.696,148.846 539.696,149.346 538.5,150C 541.099,150.769 543.599,150.602 546,149.5C 548.629,149.928 550.962,150.928 553,152.5C 557.821,151.935 562.654,152.435 567.5,154C 568.334,156.493 570.001,156.993 572.5,155.5C 577.49,157.893 582.823,159.227 588.5,159.5C 590.228,159.41 591.894,159.077 593.5,158.5C 594.228,156.807 595.228,155.307 596.5,154C 602.019,150.622 607.352,147.122 612.5,143.5C 615.094,144.592 617.261,146.259 619,148.5C 621.276,145.936 623.276,146.27 625,149.5C 625.617,148.551 625.451,147.718 624.5,147C 625.833,146.333 627.167,146.333 628.5,147C 627.483,148.049 627.316,149.216 628,150.5C 629.011,149.663 630.178,149.33 631.5,149.5C 631.833,150.833 632.167,150.833 632.5,149.5C 636.08,149.122 639.746,149.622 643.5,151C 645.921,153.094 648.588,154.76 651.5,156C 656.639,171.95 653.472,186.117 642,198.5C 641.122,201.709 639.789,204.709 638,207.5C 636.736,209.607 634.903,210.607 632.5,210.5C 630.997,218.507 627.163,225.173 621,230.5C 618.938,237.558 614.938,243.225 609,247.5C 608.286,250.595 607.286,253.595 606,256.5C 599.59,263.902 593.59,271.569 588,279.5C 585.285,288.607 580.785,296.607 574.5,303.5C 572.822,309.693 569.322,314.693 564,318.5C 562.775,326.507 559.108,333.173 553,338.5C 550.663,343.881 548.329,349.215 546,354.5C 543.667,357.167 541.333,359.833 539,362.5C 539.269,368.267 536.602,372.267 531,374.5C 529.807,383.054 525.807,390.054 519,395.5C 516.41,401.019 513.076,406.019 509,410.5C 507.263,419.728 502.597,427.061 495,432.5C 494.178,435.117 493.678,437.784 493.5,440.5C 492.5,440.5 491.5,440.5 490.5,440.5C 487.699,446.103 484.865,451.769 482,457.5C 480.063,461.435 477.396,464.768 474,467.5C 471.724,472.391 469.224,477.057 466.5,481.5C 465.5,481.5 464.5,481.5 463.5,481.5C 461.599,491.306 457.099,499.639 450,506.5C 448.886,512.056 446.219,516.723 442,520.5C 439.929,523.588 438.262,526.921 437,530.5C 434.412,532.413 431.912,534.413 429.5,536.5C 427.98,545.537 423.813,553.203 417,559.5C 416.808,561.577 416.308,563.577 415.5,565.5C 408.529,572.297 403.696,580.297 401,589.5C 395.993,592.992 392.826,597.658 391.5,603.5C 388.408,605.263 385.408,606.429 382.5,607C 383.276,615.966 380.11,623.466 373,629.5C 372.178,631.788 371.511,634.122 371,636.5C 367.134,640.461 363.801,644.794 361,649.5C 356.468,654.367 351.634,658.867 346.5,663C 342.369,663.275 338.702,664.608 335.5,667C 329.908,667.096 324.408,667.93 319,669.5C 312.747,669.479 306.914,667.979 301.5,665C 298.854,664.503 296.187,664.336 293.5,664.5C 293.881,662.058 293.214,661.391 291.5,662.5C 281.392,658.452 271.059,654.952 260.5,652C 242.414,645.594 224.747,638.761 207.5,631.5C 171.564,618.96 135.23,606.293 98.5,593.5C 98.762,592.022 98.4287,590.689 97.5,589.5C 96.914,589.709 96.414,590.043 96,590.5C 93.3605,588.527 91.0272,586.194 89,583.5C 88.7103,580.557 87.5437,578.057 85.5,576C 85.906,572.265 86.906,568.765 88.5,565.5C 87.9747,564.808 87.3081,564.308 86.5,564C 87.3805,563.292 88.0472,562.458 88.5,561.5C 88.9333,558.741 90.6,557.408 93.5,557.5C 93.5,555.5 93.5,553.5 93.5,551.5C 95.6607,551.174 97.4941,550.174 99,548.5C 100.792,544.575 102.292,540.575 103.5,536.5C 106.084,536.431 108.084,535.265 109.5,533C 108.724,531.23 108.89,529.397 110,527.5C 114.739,522.434 119.073,517.101 123,511.5C 123.662,509.187 124.162,506.854 124.5,504.5C 125.5,504.5 126.5,504.5 127.5,504.5C 127.351,503.448 127.517,502.448 128,501.5C 130.345,499.486 132.345,497.153 134,494.5C 134.684,493.216 134.517,492.049 133.5,491C 136.539,489.969 139.039,488.135 141,485.5C 141.72,483.888 141.554,482.388 140.5,481C 143.562,479.939 146.062,478.106 148,475.5C 151.624,469.862 155.291,464.195 159,458.5C 158.383,456.905 158.716,455.572 160,454.5C 162.091,455.5 163.757,454.833 165,452.5C 165.245,447.431 167.412,443.431 171.5,440.5C 173.382,439.779 173.715,438.779 172.5,437.5C 174.634,435.53 176.634,433.363 178.5,431C 177.833,430.667 177.167,430.333 176.5,430C 177.905,428.731 179.571,428.231 181.5,428.5C 181.57,425.433 182.904,423.1 185.5,421.5C 184.295,420.005 184.295,418.672 185.5,417.5C 186.209,418.404 187.209,418.737 188.5,418.5C 188.343,417.127 188.51,415.793 189,414.5C 194.145,408.847 198.311,402.513 201.5,395.5C 203.258,394.872 204.758,393.872 206,392.5C 207.914,388.911 210.248,385.578 213,382.5C 213.5,381 214,379.5 214.5,378C 219.313,373.018 222.646,367.185 224.5,360.5C 226.973,360.912 228.306,359.912 228.5,357.5C 232.099,354.043 235.265,350.043 238,345.5C 238.671,344.748 239.504,344.414 240.5,344.5C 241.844,341.626 243.01,338.626 244,335.5C 246.768,330.302 250.268,325.635 254.5,321.5C 255.198,319.333 256.531,317.5 258.5,316C 257.833,315.667 257.167,315.333 256.5,315C 257.949,313.883 259.616,313.216 261.5,313C 264.959,308.59 267.792,303.757 270,298.5C 272.313,294.963 274.979,291.63 278,288.5C 278.49,287.207 278.657,285.873 278.5,284.5C 279.5,284.5 280.5,284.5 281.5,284.5C 281.338,282.473 281.505,280.473 282,278.5C 283.011,277.663 284.178,277.33 285.5,277.5C 286.292,275.115 287.626,273.115 289.5,271.5C 288.711,271.217 288.044,270.717 287.5,270C 293.8,265.868 298.467,260.368 301.5,253.5C 300.718,251.671 301.384,250.171 303.5,249C 304.448,248.517 305.448,248.351 306.5,248.5C 306.744,245.737 308.077,243.571 310.5,242C 309.306,239.342 310.306,238.176 313.5,238.5C 313.629,236.784 313.962,235.117 314.5,233.5C 316.048,233.179 316.715,232.179 316.5,230.5C 318.39,230.703 319.89,230.037 321,228.5C 323.707,221.114 328.04,214.781 334,209.5C 335.398,207.186 335.565,204.853 334.5,202.5C 335.325,201.614 336.325,201.281 337.5,201.5C 337.5,200.5 337.5,199.5 337.5,198.5C 340.263,198.256 342.429,196.923 344,194.5C 347,189.5 350,184.5 353,179.5C 354.953,176.544 357.286,173.877 360,171.5C 360,170.167 360,168.833 360,167.5C 365.855,161.565 371.188,155.232 376,148.5C 379.569,143.063 382.736,137.396 385.5,131.5C 390.435,128.062 394.102,123.562 396.5,118C 402.361,115.145 407.361,111.145 411.5,106C 416.885,103.483 422.551,102.317 428.5,102.5C 440.534,102.665 451.867,105.499 462.5,111C 464.833,111.333 467.167,111.667 469.5,112C 468.167,113 468.167,114 469.5,115C 466.325,116.577 465.991,118.41 468.5,120.5C 467.726,121.711 466.893,121.711 466,120.5C 465.333,122.5 465.333,124.5 466,126.5C 468.167,128.667 470.333,130.833 472.5,133C 471.833,133.667 471.167,134.333 470.5,135C 471.905,136.269 473.571,136.769 475.5,136.5C 475.351,137.552 475.517,138.552 476,139.5C 478.459,136.9 480.959,136.9 483.5,139.5C 484.5,138.833 485.5,138.167 486.5,137.5C 487.852,138.896 489.519,139.563 491.5,139.5C 494.822,139.155 498.155,138.821 501.5,138.5C 502.833,139.5 504.167,140.5 505.5,141.5C 507.5,141.167 509.5,140.833 511.5,140.5C 513.978,141.722 514.978,143.722 514.5,146.5C 515.5,146.5 516.5,146.5 517.5,146.5 Z M 385.5,306.5 C 387.567,309.34 387.734,312.34 386,315.5C 385.502,312.518 385.335,309.518 385.5,306.5 Z M 426.5,360.5 C 427.947,361.134 428.613,362.301 428.5,364C 428.324,367.423 426.991,368.089 424.5,366C 425.244,364.185 425.911,362.352 426.5,360.5 Z M 405.5,364.5 C 406.693,364.97 407.36,365.97 407.5,367.5C 406.254,369.822 404.92,372.156 403.5,374.5C 402.772,372.807 401.772,371.307 400.5,370C 403.193,369.121 404.86,367.288 405.5,364.5 Z M 148.5,469.5 C 149.773,470.077 149.773,470.743 148.5,471.5C 147.537,471.03 147.537,470.363 148.5,469.5 Z"/></g>
<g><path style="opacity:0.995" fill="#222223" d="M 661.5,144.5 C 675.163,154.713 678.33,167.713 671,183.5C 644.914,226.07 619.081,268.737 593.5,311.5C 590.084,315.323 587.418,319.657 585.5,324.5C 554.264,373.962 523.264,423.629 492.5,473.5C 488.751,470.367 488.751,467.034 492.5,463.5C 491.397,463.002 490.397,462.669 489.5,462.5C 491.176,461.272 491.509,459.939 490.5,458.5C 545.656,369.528 600.822,280.528 656,191.5C 658.333,186.833 660.667,182.167 663,177.5C 666.015,166.81 663.182,158.31 654.5,152C 638.135,145.142 621.135,141.142 603.5,140C 599.575,148.881 592.742,153.381 583,153.5C 547.25,146.36 511.75,138.193 476.5,129C 473.241,127.75 471.575,125.417 471.5,122C 472.987,117.532 474.32,113.032 475.5,108.5C 466.188,106.339 456.855,104.172 447.5,102C 420.989,95.2751 400.156,103.108 385,125.5C 298.693,250.955 211.86,375.955 124.5,500.5C 124.703,498.956 125.37,497.622 126.5,496.5C 125.369,495.396 124.535,495.729 124,497.5C 123.333,496.833 122.667,496.167 122,495.5C 120.684,496.974 119.684,498.641 119,500.5C 118.617,499.944 118.117,499.611 117.5,499.5C 141.233,464.384 165.233,429.384 189.5,394.5C 189.376,393.893 189.043,393.56 188.5,393.5C 234.89,327.776 280.89,261.776 326.5,195.5C 345.486,167.549 364.986,139.883 385,112.5C 401.754,97.0112 421.588,90.5112 444.5,93C 510.823,107.998 577.157,122.998 643.5,138C 649.754,139.56 655.754,141.727 661.5,144.5 Z M 385.5,306.5 C 385.335,309.518 385.502,312.518 386,315.5C 387.734,312.34 387.567,309.34 385.5,306.5 Z M 426.5,360.5 C 425.911,362.352 425.244,364.185 424.5,366C 426.991,368.089 428.324,367.423 428.5,364C 428.613,362.301 427.947,361.134 426.5,360.5 Z M 405.5,364.5 C 404.86,367.288 403.193,369.121 400.5,370C 401.772,371.307 402.772,372.807 403.5,374.5C 404.92,372.156 406.254,369.822 407.5,367.5C 407.36,365.97 406.693,364.97 405.5,364.5 Z M 148.5,469.5 C 147.537,470.363 147.537,471.03 148.5,471.5C 149.773,470.743 149.773,470.077 148.5,469.5 Z"/></g>
<g><path style="opacity:0.004" fill="#fefffe" d="M 375.5,105.5 C 376.525,105.897 376.692,106.563 376,107.5C 375.536,106.906 375.369,106.239 375.5,105.5 Z"/></g>
<g><path style="opacity:0.004" fill="#fefffe" d="M 372.5,111.5 C 373.833,112.167 373.833,112.167 372.5,111.5 Z"/></g>
<g><path style="opacity:0.004" fill="#fefffe" d="M 600.5,120.5 C 601.833,121.167 601.833,121.167 600.5,120.5 Z"/></g>
<g><path style="opacity:0.004" fill="#fefffe" d="M 604.5,121.5 C 603.833,120.167 603.833,120.167 604.5,121.5 Z"/></g>
<g><path style="opacity:0.004" fill="#fefffe" d="M 604.5,121.5 C 606.924,121.192 609.257,121.526 611.5,122.5C 610.333,122.833 609.167,123.167 608,123.5C 606.319,123.392 605.152,122.725 604.5,121.5 Z"/></g>
<g><path style="opacity:0.004" fill="#fefffe" d="M 637.5,129.5 C 638.833,130.167 638.833,130.167 637.5,129.5 Z"/></g>
<g><path style="opacity:0.004" fill="#fefffe" d="M 639.5,130.5 C 639.897,129.475 640.563,129.308 641.5,130C 640.906,130.464 640.239,130.631 639.5,130.5 Z"/></g>
<g><path style="opacity:0.005" fill="#fefffe" d="M 493.5,297.5 C 492.167,298.167 492.167,298.833 493.5,299.5C 493.649,300.552 493.483,301.552 493,302.5C 492,301.167 491,301.167 490,302.5C 487.954,310.353 484.288,317.353 479,323.5C 477.54,325.972 476.54,328.639 476,331.5C 474.989,332.337 473.822,332.67 472.5,332.5C 470.547,338.033 468.214,343.367 465.5,348.5C 462.261,348.413 459.261,349.08 456.5,350.5C 456.007,356.217 453.007,359.55 447.5,360.5C 448,356.507 446.5,354.84 443,355.5C 442.51,356.793 442.343,358.127 442.5,359.5C 437.164,360.815 434.497,358.815 434.5,353.5C 427.36,353.057 426.693,354.724 432.5,358.5C 431.607,361.084 431.274,363.751 431.5,366.5C 432.5,366.5 433.5,366.5 434.5,366.5C 434.585,375.534 430.585,380.367 422.5,381C 420.31,385.863 417.31,390.196 413.5,394C 411.559,395.903 409.226,396.736 406.5,396.5C 406.617,398.484 405.95,400.15 404.5,401.5C 405.415,402.328 406.081,403.328 406.5,404.5C 405.6,406.239 404.933,408.072 404.5,410C 406.498,415.953 406.998,422.119 406,428.5C 403.333,429.833 400.667,431.167 398,432.5C 396.793,441.23 394.626,449.563 391.5,457.5C 390.264,456.754 388.93,456.421 387.5,456.5C 386.853,452.481 386.52,448.481 386.5,444.5C 384.728,445.27 383.728,446.603 383.5,448.5C 385.049,450.902 385.716,453.568 385.5,456.5C 383.833,456.5 382.167,456.5 380.5,456.5C 379.877,451.569 377.21,448.236 372.5,446.5C 370.426,442.161 371.759,440.161 376.5,440.5C 376.334,435.156 376.501,429.823 377,424.5C 379.783,420.504 380.283,416.171 378.5,411.5C 378.86,408.921 379.526,406.421 380.5,404C 380.167,403.5 379.833,403 379.5,402.5C 378.391,403.59 377.391,403.59 376.5,402.5C 378.078,401.702 379.744,401.202 381.5,401C 383.972,397.695 386.305,394.362 388.5,391C 393.599,390.824 396.265,388.157 396.5,383C 396.646,380.966 395.98,379.299 394.5,378C 396.553,376.711 398.553,375.378 400.5,374C 394.192,374.017 393.859,372.684 399.5,370C 397.47,368.104 395.803,365.937 394.5,363.5C 394.977,362.522 395.643,361.689 396.5,361C 395.253,358.098 395.253,354.931 396.5,351.5C 402.557,350.912 402.89,349.412 397.5,347C 398.99,346.255 399.99,345.088 400.5,343.5C 400.278,340.645 400.111,337.645 400,334.5C 394.427,339.977 390.094,346.311 387,353.5C 385.892,345.745 382.225,344.078 376,348.5C 375.122,351.709 373.789,354.709 372,357.5C 371.667,354.833 371.333,352.167 371,349.5C 369.301,348.594 367.467,348.261 365.5,348.5C 366.076,352.122 365.076,355.122 362.5,357.5C 361.513,354.232 361.18,350.898 361.5,347.5C 360.5,347.5 359.5,347.5 358.5,347.5C 357.414,350.195 357.747,352.861 359.5,355.5C 358.683,358.556 356.683,360.223 353.5,360.5C 351.28,363.548 349.28,366.715 347.5,370C 349.63,371.261 351.797,371.761 354,371.5C 355.515,377.925 354.015,383.425 349.5,388C 351.376,389.017 353.376,389.851 355.5,390.5C 354.359,391.425 354.359,392.259 355.5,393C 352.785,393.875 351.452,395.708 351.5,398.5C 349.61,398.703 348.11,398.037 347,396.5C 346.072,398.335 344.906,398.668 343.5,397.5C 342.323,400.349 340.49,402.682 338,404.5C 337.64,402.579 336.806,400.912 335.5,399.5C 337.5,396.167 339.5,392.833 341.5,389.5C 340.465,383.294 340.465,376.961 341.5,370.5C 340.157,366.162 338.823,361.828 337.5,357.5C 340.187,357.664 342.854,357.497 345.5,357C 347.302,355.173 349.468,354.006 352,353.5C 350.614,347.549 352.114,342.382 356.5,338C 357.449,337.383 358.282,337.549 359,338.5C 359.718,335.766 361.218,335.1 363.5,336.5C 362.391,338.214 363.058,338.881 365.5,338.5C 365.5,337.5 365.5,336.5 365.5,335.5C 368.565,335.759 371.065,334.759 373,332.5C 373.718,333.451 374.551,333.617 375.5,333C 377.607,331.736 378.607,329.903 378.5,327.5C 375.664,326.224 372.664,325.558 369.5,325.5C 370.964,321.126 372.964,316.959 375.5,313C 374.491,311.832 373.491,310.665 372.5,309.5C 373.289,303.885 373.789,298.218 374,292.5C 377.173,290.319 379.173,287.319 380,283.5C 380.151,286.119 380.985,288.453 382.5,290.5C 379.757,292.698 379.923,294.698 383,296.5C 386.077,294.698 386.243,292.698 383.5,290.5C 385.63,289.223 387.296,289.723 388.5,292C 391.099,292.769 393.599,292.602 396,291.5C 396.261,287.294 396.761,283.127 397.5,279C 396.217,277.864 395.217,276.531 394.5,275C 394.833,274.5 395.167,274 395.5,273.5C 396.938,276.823 398.771,277.156 401,274.5C 401.769,271.901 401.602,269.401 400.5,267C 401.428,264.107 402.428,261.273 403.5,258.5C 403.029,256.754 402.362,255.087 401.5,253.5C 402.851,250.956 403.851,248.289 404.5,245.5C 401.196,243.007 400.696,240.007 403,236.5C 404.049,238.107 405.549,238.773 407.5,238.5C 407.708,234.511 409.708,232.677 413.5,233C 414.079,236.157 415.079,239.157 416.5,242C 415.234,244.708 413.067,246.208 410,246.5C 408.131,253.429 410.464,258.096 417,260.5C 417.667,261.833 417.667,263.167 417,264.5C 414.966,263.138 412.799,262.138 410.5,261.5C 410.33,262.822 410.663,263.989 411.5,265C 413.577,265.192 415.577,265.692 417.5,266.5C 418.317,269.842 420.317,271.342 423.5,271C 426.807,263.363 431.307,256.53 437,250.5C 437.978,247.331 437.478,244.497 435.5,242C 436.88,238.541 438.213,235.041 439.5,231.5C 439.119,229.259 438.952,226.926 439,224.5C 435.6,220.761 431.933,217.428 428,214.5C 427.517,215.448 427.351,216.448 427.5,217.5C 423.768,218.199 420.435,219.866 417.5,222.5C 416.482,221.807 415.482,221.141 414.5,220.5C 414.918,216.784 416.751,213.451 420,210.5C 420.937,205.328 423.771,201.828 428.5,200C 431.011,197.157 433.844,194.657 437,192.5C 441.167,183.5 445.334,174.5 449.5,165.5C 453.005,166.124 455.838,165.124 458,162.5C 467.688,165.379 477.521,167.546 487.5,169C 490.896,170.448 494.063,172.281 497,174.5C 498.605,173.899 499.938,172.899 501,171.5C 503.498,173.155 504.998,175.488 505.5,178.5C 507.516,177.294 509.516,177.294 511.5,178.5C 514.495,180.994 517.328,183.661 520,186.5C 520.296,189.706 520.796,192.872 521.5,196C 519.456,198.057 518.29,200.557 518,203.5C 517.748,208.495 517.914,213.495 518.5,218.5C 518.54,222.955 517.873,227.288 516.5,231.5C 515.851,235.605 516.517,239.605 518.5,243.5C 517.788,246.648 517.121,249.814 516.5,253C 517.432,256.276 516.099,258.442 512.5,259.5C 511.914,259.291 511.414,258.957 511,258.5C 507.667,265.833 504.333,273.167 501,280.5C 498.041,283.098 496.707,286.432 497,290.5C 495.093,292.456 493.926,294.79 493.5,297.5 Z M 385.5,306.5 C 385.335,309.518 385.502,312.518 386,315.5C 387.734,312.34 387.567,309.34 385.5,306.5 Z M 426.5,360.5 C 425.911,362.352 425.244,364.185 424.5,366C 426.991,368.089 428.324,367.423 428.5,364C 428.613,362.301 427.947,361.134 426.5,360.5 Z M 405.5,364.5 C 404.86,367.288 403.193,369.121 400.5,370C 401.772,371.307 402.772,372.807 403.5,374.5C 404.92,372.156 406.254,369.822 407.5,367.5C 407.36,365.97 406.693,364.97 405.5,364.5 Z"/></g>
<g><path style="opacity:0.098" fill="#b2afb0" d="M 682.5,175.5 C 683.203,177.629 684.203,179.629 685.5,181.5C 687.021,189.808 686.521,198.141 684,206.5C 683.617,207.056 683.117,207.389 682.5,207.5C 685.072,201.479 685.072,195.812 682.5,190.5C 682.667,189.833 682.833,189.167 683,188.5C 683.799,192.424 684.299,192.424 684.5,188.5C 683.28,185.467 682.28,182.301 681.5,179C 681.989,177.862 682.322,176.695 682.5,175.5 Z"/></g>
<g><path style="opacity:0.869" fill="#4a4a4c" d="M 661.5,142.5 C 667.655,144.815 672.488,148.815 676,154.5C 678.874,161.288 681.041,168.288 682.5,175.5C 682.322,176.695 681.989,177.862 681.5,179C 682.28,182.301 683.28,185.467 684.5,188.5C 684.299,192.424 683.799,192.424 683,188.5C 682.833,189.167 682.667,189.833 682.5,190.5C 685.072,195.812 685.072,201.479 682.5,207.5C 674.503,221.492 666.503,235.492 658.5,249.5C 656.75,250.659 655.75,252.326 655.5,254.5C 650.083,261.659 645.417,269.325 641.5,277.5C 637.335,283.158 633.668,289.158 630.5,295.5C 628.738,296.262 627.738,297.596 627.5,299.5C 627.5,299.833 627.5,300.167 627.5,300.5C 624.421,303.65 622.087,307.317 620.5,311.5C 616.779,316.562 613.445,321.896 610.5,327.5C 608.412,329.336 607.079,331.669 606.5,334.5C 603.498,337.161 601.498,340.495 600.5,344.5C 598.674,346.147 597.34,348.147 596.5,350.5C 596.672,351.492 596.338,352.158 595.5,352.5C 592.498,355.161 590.498,358.495 589.5,362.5C 589.5,363.167 589.167,363.5 588.5,363.5C 587.599,364.29 586.932,365.29 586.5,366.5C 586.672,367.492 586.338,368.158 585.5,368.5C 583,371.494 581,374.827 579.5,378.5C 579.071,381.147 577.738,383.147 575.5,384.5C 572.344,387.996 570.011,391.996 568.5,396.5C 566.75,397.659 565.75,399.326 565.5,401.5C 564.094,401.973 563.427,402.973 563.5,404.5C 560.205,411.078 556.372,417.411 552,423.5C 552,424.833 552,426.167 552,427.5C 551.667,427.167 551.333,426.833 551,426.5C 549.595,427.731 548.429,429.064 547.5,430.5C 547.167,430.5 546.833,430.5 546.5,430.5C 545.242,429.938 543.576,429.271 541.5,428.5C 541.677,426.019 540.677,424.186 538.5,423C 539.791,420.728 540.457,418.561 540.5,416.5C 542.836,418.23 542.836,419.73 540.5,421C 543.318,421.84 545.484,421.006 547,418.5C 549.902,422.492 552.402,422.158 554.5,417.5C 553.289,416.28 553.289,415.113 554.5,414C 552.606,412.921 552.273,411.587 553.5,410C 549.716,406.809 550.382,404.309 555.5,402.5C 555.167,401.833 554.833,401.167 554.5,400.5C 555.98,399.887 557.313,399.554 558.5,399.5C 556.376,398.851 554.376,398.017 552.5,397C 553.449,396.383 554.282,396.549 555,397.5C 555.434,394.498 556.601,391.831 558.5,389.5C 557.572,388.232 557.405,386.899 558,385.5C 558.333,385.833 558.667,386.167 559,386.5C 560.333,385.167 561.667,383.833 563,382.5C 563.617,381.551 563.451,380.718 562.5,380C 566.236,378.493 566.236,377.66 562.5,377.5C 562.351,376.448 562.517,375.448 563,374.5C 563.333,374.833 563.667,375.167 564,375.5C 564.648,371.362 566.315,370.695 569,373.5C 570.135,373.273 571.302,372.94 572.5,372.5C 571.263,371.719 570.263,370.719 569.5,369.5C 570.186,366.861 571.853,364.361 574.5,362C 574.095,361.055 573.428,360.388 572.5,360C 573.5,359.667 574.5,359.333 575.5,359C 574.529,357.796 573.529,357.296 572.5,357.5C 573.833,356.5 575.167,355.5 576.5,354.5C 576.205,355.826 576.705,357.159 578,358.5C 578.422,356.645 578.922,354.811 579.5,353C 579.095,352.055 578.428,351.388 577.5,351C 577.962,349.278 578.128,347.445 578,345.5C 592.5,321.833 607,298.167 621.5,274.5C 621.333,274.167 621.167,273.833 621,273.5C 613.51,284.143 606.677,295.143 600.5,306.5C 598.313,308.422 595.98,310.088 593.5,311.5C 619.081,268.737 644.914,226.07 671,183.5C 678.33,167.713 675.163,154.713 661.5,144.5C 661.5,143.833 661.5,143.167 661.5,142.5 Z"/></g>
<g><path style="opacity:0.996" fill="#222324" d="M 669.5,193.5 C 670.043,193.56 670.376,193.893 670.5,194.5C 656.835,217.835 642.668,240.835 628,263.5C 629.427,259.021 631.427,254.687 634,250.5C 646.454,231.881 658.287,212.881 669.5,193.5 Z"/></g>
<g><path style="opacity:0.005" fill="#f8f8f8" d="M 682.5,207.5 C 682.623,210.588 681.623,213.255 679.5,215.5C 682.825,216.504 683.159,217.838 680.5,219.5C 679.942,223.558 677.608,225.724 673.5,226C 675.211,227.133 675.711,228.633 675,230.5C 668.839,239.178 663.506,248.178 659,257.5C 657.667,258.833 656.333,260.167 655,261.5C 653.703,260.216 652.536,260.383 651.5,262C 654.066,263.879 654.066,265.712 651.5,267.5C 647.856,273.336 644.356,279.336 641,285.5C 639.282,286.85 637.448,288.017 635.5,289C 636.624,289.249 637.624,289.749 638.5,290.5C 636.785,292.882 634.785,294.882 632.5,296.5C 631.833,296.167 631.167,295.833 630.5,295.5C 633.668,289.158 637.335,283.158 641.5,277.5C 645.417,269.325 650.083,261.659 655.5,254.5C 655.75,252.326 656.75,250.659 658.5,249.5C 666.503,235.492 674.503,221.492 682.5,207.5 Z M 680.5,219.5 C 677.203,219.671 676.869,219.005 679.5,217.5C 680.298,217.957 680.631,218.624 680.5,219.5 Z M 664.5,240.5 C 665.773,241.077 665.773,241.743 664.5,242.5C 663.537,242.03 663.537,241.363 664.5,240.5 Z M 651.5,267.5 C 647.867,267.557 647.7,266.557 651,264.5C 651.483,265.448 651.649,266.448 651.5,267.5 Z"/></g>
<g><path style="opacity:0.004" fill="#fefffe" d="M 379.5,255.5 C 382.407,256.614 382.907,258.281 381,260.5C 379.731,259.095 379.231,257.429 379.5,255.5 Z"/></g>
<g><path style="opacity:0.004" fill="#fefffe" d="M 389.5,284.5 C 391.337,284.639 391.67,285.306 390.5,286.5C 389.702,286.043 389.369,285.376 389.5,284.5 Z"/></g>
<g><path style="opacity:0.005" fill="#f7f7f7" d="M 630.5,295.5 C 630.711,297.424 631.377,297.757 632.5,296.5C 633.497,296.47 634.164,296.97 634.5,298C 632.984,300.266 630.984,301.766 628.5,302.5C 628.737,301.209 628.404,300.209 627.5,299.5C 627.738,297.596 628.738,296.262 630.5,295.5 Z"/></g>
<g><path style="opacity:0.004" fill="#fefffe" d="M 627.5,302.5 C 627.833,302.5 628.167,302.5 628.5,302.5C 628.315,303.17 627.981,303.17 627.5,302.5 Z"/></g>
<g><path style="opacity:0.008" fill="#f2f2f2" d="M 627.5,300.5 C 627.5,301.167 627.5,301.833 627.5,302.5C 626.167,302.833 626.167,303.167 627.5,303.5C 627.5,304.167 627.5,304.833 627.5,305.5C 623.5,305.833 623.5,306.167 627.5,306.5C 626.458,308.791 624.958,309.791 623,309.5C 622.925,311.935 622.092,312.602 620.5,311.5C 622.087,307.317 624.421,303.65 627.5,300.5 Z"/></g>
<g><path style="opacity:0.004" fill="#fefffe" d="M 627.5,305.5 C 628.833,306.167 628.833,306.167 627.5,305.5 Z"/></g>
<g><path style="opacity:0.004" fill="#fefffe" d="M 617.5,319.5 C 618.833,320.167 618.833,320.833 617.5,321.5C 617.5,320.833 617.5,320.167 617.5,319.5 Z"/></g>
<g><path style="opacity:0.006" fill="#f4f4f4" d="M 620.5,311.5 C 620.721,312.735 621.388,313.735 622.5,314.5C 621.037,316.479 619.371,318.146 617.5,319.5C 616.167,320.167 616.167,320.833 617.5,321.5C 613.816,322.537 612.483,324.871 613.5,328.5C 612.687,329.814 611.687,330.981 610.5,332C 611.311,334.291 610.477,336.125 608,337.5C 607.768,336.263 607.268,335.263 606.5,334.5C 607.079,331.669 608.412,329.336 610.5,327.5C 613.445,321.896 616.779,316.562 620.5,311.5 Z"/></g>
<g><path style="opacity:0.995" fill="#141414" d="M 618.5,289.5 C 619.376,289.369 620.043,289.702 620.5,290.5C 609.585,309.332 598.418,327.999 587,346.5C 584.715,350.187 583.548,354.187 583.5,358.5C 582.5,358.5 581.5,358.5 580.5,358.5C 580.243,353.003 581.743,348.003 585,343.5C 596.391,325.615 607.558,307.615 618.5,289.5 Z"/></g>
<g><path style="opacity:0.007" fill="#f0f1f0" d="M 606.5,334.5 C 606.264,336.87 605.264,338.87 603.5,340.5C 604.326,341.451 604.492,342.451 604,343.5C 603.667,343.167 603.333,342.833 603,342.5C 602.292,343.381 601.458,344.047 600.5,344.5C 601.498,340.495 603.498,337.161 606.5,334.5 Z"/></g>
<g><path style="opacity:0.005" fill="#f8f8f6" d="M 600.5,344.5 C 601.66,345.265 602.66,346.265 603.5,347.5C 600.939,348.132 598.605,349.132 596.5,350.5C 597.34,348.147 598.674,346.147 600.5,344.5 Z"/></g>
<g><path style="opacity:0.005" fill="#f9f8f8" d="M 595.5,352.5 C 595.414,353.496 595.748,354.329 596.5,355C 595.552,355.483 594.552,355.649 593.5,355.5C 594.237,359.529 593.737,363.529 592,367.5C 589.163,371.755 587.33,371.422 586.5,366.5C 586.932,365.29 587.599,364.29 588.5,363.5C 588.747,365.975 589.413,365.975 590.5,363.5C 590.376,362.893 590.043,362.56 589.5,362.5C 590.498,358.495 592.498,355.161 595.5,352.5 Z"/></g>
<g><path style="opacity:0.004" fill="#fefffe" d="M 382.5,357.5 C 383.5,357.5 384.5,357.5 385.5,357.5C 385.5,358.5 385.5,359.5 385.5,360.5C 384.5,360.5 383.5,360.5 382.5,360.5C 384.195,363.813 383.195,365.813 379.5,366.5C 378.924,362.888 379.924,359.888 382.5,357.5 Z"/></g>
<g><path style="opacity:0.004" fill="#fefffe" d="M 382.5,369.5 C 383.5,369.5 384.5,369.5 385.5,369.5C 385.762,370.978 385.429,372.311 384.5,373.5C 382.889,372.68 382.222,371.346 382.5,369.5 Z"/></g>
<g><path style="opacity:0.004" fill="#fefffe" d="M 373.5,374.5 C 376.137,376.154 375.803,376.654 372.5,376C 373.056,375.617 373.389,375.117 373.5,374.5 Z"/></g>
<g><path style="opacity:0.004" fill="#fefffe" d="M 382.5,374.5 C 384.983,374.73 385.483,375.397 384,376.5C 382.97,376.164 382.47,375.497 382.5,374.5 Z"/></g>
<g><path style="opacity:0.007" fill="#f3f3f3" d="M 585.5,368.5 C 585.611,369.117 585.944,369.617 586.5,370C 585.313,371.019 584.313,372.186 583.5,373.5C 584.653,374.687 584.653,375.687 583.5,376.5C 583.44,375.957 583.107,375.624 582.5,375.5C 581.712,376.77 580.712,377.77 579.5,378.5C 581,374.827 583,371.494 585.5,368.5 Z"/></g>
<g><path style="opacity:0.004" fill="#fefffe" d="M 359.5,376.5 C 361.592,379.051 364.092,381.384 367,383.5C 369.424,381.744 371.924,380.077 374.5,378.5C 375.635,380.707 376.301,383.04 376.5,385.5C 374.549,385.773 373.049,385.107 372,383.5C 371.517,384.448 371.351,385.448 371.5,386.5C 369.5,386.5 367.5,386.5 365.5,386.5C 365.872,389.022 365.039,391.022 363,392.5C 358.616,387.909 357.449,382.576 359.5,376.5 Z"/></g>
<g><path style="opacity:0.004" fill="#fefffe" d="M 583.5,376.5 C 583.737,377.791 583.404,378.791 582.5,379.5C 582.263,378.209 582.596,377.209 583.5,376.5 Z"/></g>
<g><path style="opacity:0.004" fill="#fefffe" d="M 582.5,379.5 C 582.103,380.525 581.437,380.692 580.5,380C 581.094,379.536 581.761,379.369 582.5,379.5 Z"/></g>
<g><path style="opacity:0.005" fill="#efefef" d="M 575.5,384.5 C 575.528,386.582 574.861,388.416 573.5,390C 576.365,392.403 576.199,393.236 573,392.5C 570.457,393.876 570.291,395.043 572.5,396C 571.207,396.49 569.873,396.657 568.5,396.5C 570.011,391.996 572.344,387.996 575.5,384.5 Z"/></g>
<g><path style="opacity:0.007" fill="#f0f0f0" d="M 568.5,396.5 C 569.515,398.964 568.515,400.63 565.5,401.5C 565.75,399.326 566.75,397.659 568.5,396.5 Z"/></g>
<g><path style="opacity:0.98" fill="#606164" d="M 325.5,192.5 C 326.11,193.391 326.443,194.391 326.5,195.5C 280.89,261.776 234.89,327.776 188.5,393.5C 151.43,446.63 114.596,499.964 78,553.5C 71.2881,566.084 70.9548,578.751 77,591.5C 78.0391,592.71 79.2058,593.71 80.5,594.5C 84.7719,599.575 90.1052,603.408 96.5,606C 124.031,615.945 151.364,626.112 178.5,636.5C 174.931,635.811 171.431,634.811 168,633.5C 167.235,633.57 166.735,633.903 166.5,634.5C 157.996,630.943 149.33,628.109 140.5,626C 150.036,629.61 159.37,633.443 168.5,637.5C 145.193,630.01 122.193,621.843 99.5,613C 94.0118,608.868 88.0118,605.535 81.5,603C 78.6007,600.271 75.934,597.438 73.5,594.5C 71.5905,593.025 70.4238,591.025 70,588.5C 68.7687,584.409 67.9354,580.242 67.5,576C 68.4837,565.56 71.9837,556.06 78,547.5C 160.522,429.1 243.022,310.767 325.5,192.5 Z"/></g>
<g><path style="opacity:0.004" fill="#fbfbfb" d="M 565.5,401.5 C 566.209,402.404 567.209,402.737 568.5,402.5C 568.189,403.478 567.522,404.145 566.5,404.5C 565.473,403.209 564.473,403.209 563.5,404.5C 563.427,402.973 564.094,401.973 565.5,401.5 Z"/></g>
<g><path style="opacity:0.004" fill="#fefffe" d="M 568.5,401.5 C 569.833,402.167 569.833,402.167 568.5,401.5 Z"/></g>
<g><path style="opacity:0.004" fill="#fefffe" d="M 559.5,413.5 C 560.833,414.167 560.833,414.167 559.5,413.5 Z"/></g>
<g><path style="opacity:0.004" fill="#fefffe" d="M 549.5,430.5 C 549.897,429.475 550.563,429.308 551.5,430C 550.906,430.464 550.239,430.631 549.5,430.5 Z"/></g>
<g><path style="opacity:0.005" fill="#f9f9f9" d="M 546.5,430.5 C 546.833,430.5 547.167,430.5 547.5,430.5C 547.33,431.822 547.663,432.989 548.5,434C 547.099,434.41 545.766,434.91 544.5,435.5C 545.167,433.833 545.833,432.167 546.5,430.5 Z"/></g>
<g><path style="opacity:0.005" fill="#eeeeee" d="M 544.5,435.5 C 543.587,437.086 543.587,438.586 544.5,440C 543.423,440.47 542.423,440.303 541.5,439.5C 542.026,437.77 543.026,436.436 544.5,435.5 Z"/></g>
<g><path style="opacity:0.004" fill="#fefffe" d="M 538.5,446.5 C 539.833,447.167 539.833,447.167 538.5,446.5 Z"/></g>
<g><path style="opacity:0.004" fill="#fefffe" d="M 534.5,453.5 C 535.525,453.897 535.692,454.563 535,455.5C 534.536,454.906 534.369,454.239 534.5,453.5 Z"/></g>
<g><path style="opacity:0.004" fill="#f9f9f9" d="M 533.5,453.5 C 533.005,455.482 532.505,457.482 532,459.5C 531.617,458.944 531.117,458.611 530.5,458.5C 530.953,456.435 531.953,454.768 533.5,453.5 Z"/></g>
<g><path style="opacity:0.004" fill="#fefffe" d="M 527.5,465.5 C 528.833,466.167 528.833,466.167 527.5,465.5 Z"/></g>
<g><path style="opacity:0.005" fill="#f9f9f9" d="M 523.5,469.5 C 523.833,471.5 524.167,473.5 524.5,475.5C 523.5,475.5 522.5,475.5 521.5,475.5C 521.5,474.833 521.167,474.5 520.5,474.5C 521.263,472.632 522.263,470.965 523.5,469.5 Z"/></g>
<g><path style="opacity:0.004" fill="#fefffe" d="M 520.5,478.5 C 521.833,479.167 521.833,479.167 520.5,478.5 Z"/></g>
<g><path style="opacity:0.004" fill="#fefffe" d="M 517.5,481.5 C 518.833,482.167 518.833,482.167 517.5,481.5 Z"/></g>
<g><path style="opacity:0.004" fill="#fefffe" d="M 517.5,484.5 C 518.833,485.167 518.833,485.167 517.5,484.5 Z"/></g>
<g><path style="opacity:0.004" fill="#f9f9f9" d="M 503.5,504.5 C 504.014,505.625 504.347,506.791 504.5,508C 503.069,508.465 501.903,509.299 501,510.5C 500.617,509.944 500.117,509.611 499.5,509.5C 499.799,507.545 500.799,506.211 502.5,505.5C 503.167,505.5 503.5,505.167 503.5,504.5 Z"/></g>
<g><path style="opacity:0.988" fill="#171617" d="M 188.5,393.5 C 189.043,393.56 189.376,393.893 189.5,394.5C 165.233,429.384 141.233,464.384 117.5,499.5C 102.686,518.842 89.1856,539.175 77,560.5C 71.7588,572.56 72.9254,583.894 80.5,594.5C 79.2058,593.71 78.0391,592.71 77,591.5C 70.9548,578.751 71.2881,566.084 78,553.5C 114.596,499.964 151.43,446.63 188.5,393.5 Z"/></g>
<g><path style="opacity:0.004" fill="#fefffe" d="M 497.5,517.5 C 498.833,518.167 498.833,518.167 497.5,517.5 Z"/></g>
<g><path style="opacity:0.004" fill="#fefffe" d="M 495.5,520.5 C 496.833,521.167 496.833,521.167 495.5,520.5 Z"/></g>
<g><path style="opacity:0.996" fill="#444445" d="M 546.5,430.5 C 545.833,432.167 545.167,433.833 544.5,435.5C 543.026,436.436 542.026,437.77 541.5,439.5C 541.539,440.583 541.873,441.583 542.5,442.5C 540.457,442.527 539.124,443.861 538.5,446.5C 536.917,448.663 535.584,450.996 534.5,453.5C 534.167,453.5 533.833,453.5 533.5,453.5C 531.953,454.768 530.953,456.435 530.5,458.5C 529.011,460.645 528.011,462.978 527.5,465.5C 525.806,466.527 524.473,467.861 523.5,469.5C 522.263,470.965 521.263,472.632 520.5,474.5C 521.167,474.5 521.5,474.833 521.5,475.5C 519.674,477.147 518.34,479.147 517.5,481.5C 512.233,488.284 507.567,495.951 503.5,504.5C 502.833,504.5 502.5,504.833 502.5,505.5C 500.799,506.211 499.799,507.545 499.5,509.5C 498.587,511.086 498.587,512.586 499.5,514C 498.551,514.617 497.718,514.451 497,513.5C 494.558,517.615 492.558,521.948 491,526.5C 490.617,525.944 490.117,525.611 489.5,525.5C 487.045,529.019 484.711,532.685 482.5,536.5C 482.5,536.833 482.5,537.167 482.5,537.5C 481.194,538.467 480.527,539.801 480.5,541.5C 479.833,541.5 479.5,541.833 479.5,542.5C 477.178,543.802 475.845,545.802 475.5,548.5C 474.767,550.294 473.767,551.961 472.5,553.5C 471.172,555.793 469.839,558.127 468.5,560.5C 467.89,561.391 467.557,562.391 467.5,563.5C 465.92,565.277 464.254,567.11 462.5,569C 463.056,569.383 463.389,569.883 463.5,570.5C 463.167,570.5 462.833,570.5 462.5,570.5C 460.933,571.681 460.099,573.347 460,575.5C 459.25,576.126 458.416,576.626 457.5,577C 458.634,578.016 458.301,578.683 456.5,579C 456.833,579.333 457.167,579.667 457.5,580C 456.177,580.816 455.511,581.983 455.5,583.5C 451.483,585.538 449.483,588.871 449.5,593.5C 449.5,594.167 449.167,594.5 448.5,594.5C 445.665,598.164 443.332,602.164 441.5,606.5C 436.765,612.104 432.765,618.27 429.5,625C 429.833,625.333 430.167,625.667 430.5,626C 427.373,627.406 426.373,629.573 427.5,632.5C 424.043,632.96 422.377,634.96 422.5,638.5C 421.5,638.5 420.5,638.5 419.5,638.5C 419.66,640.199 419.494,641.866 419,643.5C 416.939,647.012 414.439,650.012 411.5,652.5C 411.804,651.85 412.137,651.183 412.5,650.5C 409.238,644.545 406.071,638.545 403,632.5C 402.333,631.5 402.333,630.5 403,629.5C 436.189,575.111 469.356,520.778 502.5,466.5C 506.414,459.297 510.247,451.964 514,444.5C 515,442.833 516.333,441.5 518,440.5C 523.6,429.675 529.933,419.342 537,409.5C 540.075,399.351 544.741,390.017 551,381.5C 552.067,380.809 553.234,380.309 554.5,380C 559.149,374.542 562.649,368.375 565,361.5C 571.787,354.373 576.454,346.04 579,336.5C 582.631,333.391 584.798,329.391 585.5,324.5C 587.418,319.657 590.084,315.323 593.5,311.5C 595.98,310.088 598.313,308.422 600.5,306.5C 606.677,295.143 613.51,284.143 621,273.5C 621.167,273.833 621.333,274.167 621.5,274.5C 607,298.167 592.5,321.833 578,345.5C 578.128,347.445 577.962,349.278 577.5,351C 578.428,351.388 579.095,352.055 579.5,353C 578.922,354.811 578.422,356.645 578,358.5C 576.705,357.159 576.205,355.826 576.5,354.5C 575.167,355.5 573.833,356.5 572.5,357.5C 573.529,357.296 574.529,357.796 575.5,359C 574.5,359.333 573.5,359.667 572.5,360C 573.428,360.388 574.095,361.055 574.5,362C 571.853,364.361 570.186,366.861 569.5,369.5C 570.263,370.719 571.263,371.719 572.5,372.5C 571.302,372.94 570.135,373.273 569,373.5C 566.315,370.695 564.648,371.362 564,375.5C 563.667,375.167 563.333,374.833 563,374.5C 562.517,375.448 562.351,376.448 562.5,377.5C 566.236,377.66 566.236,378.493 562.5,380C 563.451,380.718 563.617,381.551 563,382.5C 561.667,383.833 560.333,385.167 559,386.5C 558.667,386.167 558.333,385.833 558,385.5C 557.405,386.899 557.572,388.232 558.5,389.5C 556.601,391.831 555.434,394.498 555,397.5C 554.282,396.549 553.449,396.383 552.5,397C 554.376,398.017 556.376,398.851 558.5,399.5C 557.313,399.554 555.98,399.887 554.5,400.5C 554.833,401.167 555.167,401.833 555.5,402.5C 550.382,404.309 549.716,406.809 553.5,410C 552.273,411.587 552.606,412.921 554.5,414C 553.289,415.113 553.289,416.28 554.5,417.5C 552.402,422.158 549.902,422.492 547,418.5C 545.484,421.006 543.318,421.84 540.5,421C 542.836,419.73 542.836,418.23 540.5,416.5C 540.457,418.561 539.791,420.728 538.5,423C 540.677,424.186 541.677,426.019 541.5,428.5C 543.576,429.271 545.242,429.938 546.5,430.5 Z"/></g>
<g><path style="opacity:0.004" fill="#ece8e5" d="M 489.5,525.5 C 489.61,528.837 488.943,532.171 487.5,535.5C 485.058,535.354 484.391,536.187 485.5,538C 483.757,539.11 482.424,540.61 481.5,542.5C 480.893,542.376 480.56,542.043 480.5,541.5C 480.527,539.801 481.194,538.467 482.5,537.5C 483.833,537.167 483.833,536.833 482.5,536.5C 484.711,532.685 487.045,529.019 489.5,525.5 Z"/></g>
<g><path style="opacity:0.004" fill="#fefffe" d="M 481.5,544.5 C 482.833,545.167 482.833,545.167 481.5,544.5 Z"/></g>
<g><path style="opacity:0.004" fill="#dedede" d="M 479.5,542.5 C 479.123,544.258 478.456,545.925 477.5,547.5C 478.932,549.297 478.599,550.63 476.5,551.5C 476.737,550.209 476.404,549.209 475.5,548.5C 475.845,545.802 477.178,543.802 479.5,542.5 Z"/></g>
<g><path style="opacity:0.004" fill="#fefffe" d="M 475.5,548.5 C 475.263,549.791 475.596,550.791 476.5,551.5C 475.942,553.823 475.275,556.157 474.5,558.5C 473.83,556.709 473.163,555.042 472.5,553.5C 473.767,551.961 474.767,550.294 475.5,548.5 Z"/></g>
<g><path style="opacity:0.004" fill="#f6f6f6" d="M 472.5,553.5 C 471.862,555.46 471.862,557.293 472.5,559C 471.434,561.012 470.1,561.512 468.5,560.5C 469.839,558.127 471.172,555.793 472.5,553.5 Z"/></g>
<g><path style="opacity:0.004" fill="#f9f9f9" d="M 467.5,563.5 C 468.574,564.885 469.907,566.051 471.5,567C 468.945,568.445 466.278,569.611 463.5,570.5C 463.389,569.883 463.056,569.383 462.5,569C 464.254,567.11 465.92,565.277 467.5,563.5 Z"/></g>
<g><path style="opacity:0.004" fill="#f9f9f9" d="M 462.5,570.5 C 462.923,571.265 463.257,572.098 463.5,573C 462.139,574.927 461.306,577.094 461,579.5C 459.583,581.398 458.083,583.064 456.5,584.5C 456.5,583.833 456.167,583.5 455.5,583.5C 455.511,581.983 456.177,580.816 457.5,580C 457.167,579.667 456.833,579.333 456.5,579C 458.301,578.683 458.634,578.016 457.5,577C 458.416,576.626 459.25,576.126 460,575.5C 460.099,573.347 460.933,571.681 462.5,570.5 Z"/></g>
<g><path style="opacity:0.99" fill="#2b2b2c" d="M 490.5,458.5 C 491.509,459.939 491.176,461.272 489.5,462.5C 490.397,462.669 491.397,463.002 492.5,463.5C 488.751,467.034 488.751,470.367 492.5,473.5C 454.011,535.805 415.511,598.139 377,660.5C 359.326,679.781 337.493,687.448 311.5,683.5C 316.309,683.289 321.309,683.122 326.5,683C 324.392,682.64 322.392,681.973 320.5,681C 322.256,680.798 323.922,680.298 325.5,679.5C 320.235,678.706 315.235,676.706 310.5,673.5C 332.459,677.972 351.292,672.305 367,656.5C 408.394,590.613 449.561,524.613 490.5,458.5 Z"/></g>
<g><path style="opacity:0.004" fill="#f6f6f6" d="M 455.5,583.5 C 456.167,583.5 456.5,583.833 456.5,584.5C 455.85,586.435 455.517,588.435 455.5,590.5C 454.5,590.5 453.5,590.5 452.5,590.5C 452.5,591.5 452.5,592.5 452.5,593.5C 451.5,593.5 450.5,593.5 449.5,593.5C 449.483,588.871 451.483,585.538 455.5,583.5 Z"/></g>
<g><path style="opacity:0.004" fill="#fefffe" d="M 69.5,593.5 C 68.8333,594.167 68.8333,594.167 69.5,593.5 Z"/></g>
<g><path style="opacity:0.004" fill="#fdfdfd" d="M 448.5,594.5 C 448.881,595.931 449.881,596.764 451.5,597C 450.552,597.483 449.552,597.649 448.5,597.5C 448.66,599.199 448.494,600.866 448,602.5C 446.294,603.308 445.461,604.641 445.5,606.5C 444.167,606.5 442.833,606.5 441.5,606.5C 443.332,602.164 445.665,598.164 448.5,594.5 Z"/></g>
<g><path style="opacity:0.996" fill="#2a2b2c" d="M 502.5,466.5 C 469.356,520.778 436.189,575.111 403,629.5C 402.333,630.5 402.333,631.5 403,632.5C 406.071,638.545 409.238,644.545 412.5,650.5C 412.137,651.183 411.804,651.85 411.5,652.5C 411.5,652.833 411.5,653.167 411.5,653.5C 410.883,653.611 410.383,653.944 410,654.5C 406.963,647.746 403.463,641.413 399.5,635.5C 393.197,645.635 386.697,655.635 380,665.5C 370.681,676.397 359.181,683.564 345.5,687C 346.056,686.617 346.389,686.117 346.5,685.5C 352.635,684.1 358.301,681.6 363.5,678C 371.027,671.806 377.86,664.973 384,657.5C 398.749,633.001 413.749,608.667 429,584.5C 430.333,580.5 431.667,576.5 433,572.5C 435.292,571.21 437.292,569.543 439,567.5C 441.418,560.989 445.085,555.323 450,550.5C 461.687,530.443 473.854,510.777 486.5,491.5C 491.49,482.703 496.824,474.37 502.5,466.5 Z"/></g>
<g><path style="opacity:0.004" fill="#fefefe" d="M 441.5,606.5 C 441.832,612.602 439.499,617.769 434.5,622C 435.747,623.494 435.747,624.994 434.5,626.5C 432.147,628.523 429.814,630.523 427.5,632.5C 426.373,629.573 427.373,627.406 430.5,626C 430.167,625.667 429.833,625.333 429.5,625C 432.765,618.27 436.765,612.104 441.5,606.5 Z"/></g>
<g><path style="opacity:0.006" fill="#e7e5e2" d="M 79.5,607.5 C 85.1937,618.193 93.527,626.193 104.5,631.5C 111.916,634.522 119.249,637.522 126.5,640.5C 111.56,637.695 98.3929,631.362 87,621.5C 86.6667,621.833 86.3333,622.167 86,622.5C 83.6509,619.12 81.3176,615.786 79,612.5C 78.6155,610.803 78.7822,609.137 79.5,607.5 Z"/></g>
<g><path style="opacity:0.004" fill="#fcfcf9" d="M 427.5,632.5 C 424.229,642.458 419.063,651.458 412,659.5C 407.609,668.987 401.775,677.321 394.5,684.5C 394.452,681.708 395.785,679.875 398.5,679C 398.167,678.667 397.833,678.333 397.5,678C 400.119,675.359 401.952,672.193 403,668.5C 403.333,668.833 403.667,669.167 404,669.5C 404.667,667.5 405.333,665.5 406,663.5C 408.168,660.314 410.335,657.147 412.5,654C 412.272,653.601 411.938,653.435 411.5,653.5C 411.5,653.167 411.5,652.833 411.5,652.5C 414.439,650.012 416.939,647.012 419,643.5C 419.494,641.866 419.66,640.199 419.5,638.5C 420.5,638.5 421.5,638.5 422.5,638.5C 422.377,634.96 424.043,632.96 427.5,632.5 Z"/></g>
<g><path style="opacity:0.817" fill="#4b4a4b" d="M 126.5,640.5 C 119.249,637.522 111.916,634.522 104.5,631.5C 105.313,630.347 106.313,630.347 107.5,631.5C 108.545,629.599 109.878,627.933 111.5,626.5C 111.489,627.441 111.989,628.108 113,628.5C 115.614,625.758 117.781,626.091 119.5,629.5C 117.238,631.508 117.738,631.841 121,630.5C 122.594,631.573 124.094,632.573 125.5,633.5C 126.131,629.492 127.798,629.492 130.5,633.5C 128.238,635.508 128.738,635.841 132,634.5C 133.881,636.825 135.548,636.825 137,634.5C 142.982,637.729 142.816,638.896 136.5,638C 135.5,638.833 134.5,639.667 133.5,640.5C 134.025,641.192 134.692,641.692 135.5,642C 132.498,641.842 129.498,641.342 126.5,640.5 Z"/></g>
<g><path style="opacity:0.995" fill="#3a3a3c" d="M 124.5,500.5 C 114.305,516.874 103.472,532.874 92,548.5C 89.6667,552.833 87.3333,557.167 85,561.5C 79.9367,576.857 84.4367,588.357 98.5,596C 169.56,621.042 240.227,646.876 310.5,673.5C 315.235,676.706 320.235,678.706 325.5,679.5C 323.922,680.298 322.256,680.798 320.5,681C 322.392,681.973 324.392,682.64 326.5,683C 321.309,683.122 316.309,683.289 311.5,683.5C 267.235,667.634 222.902,651.967 178.5,636.5C 151.364,626.112 124.031,615.945 96.5,606C 90.1052,603.408 84.7719,599.575 80.5,594.5C 72.9254,583.894 71.7588,572.56 77,560.5C 89.1856,539.175 102.686,518.842 117.5,499.5C 118.117,499.611 118.617,499.944 119,500.5C 119.684,498.641 120.684,496.974 122,495.5C 122.667,496.167 123.333,496.833 124,497.5C 124.535,495.729 125.369,495.396 126.5,496.5C 125.37,497.622 124.703,498.956 124.5,500.5 Z"/></g>
<g><path style="opacity:0.996" fill="#808187" d="M 166.5,634.5 C 213.244,651.035 259.91,667.868 306.5,685C 316.066,687.508 325.732,688.175 335.5,687C 324.768,689.08 314.101,688.746 303.5,686C 258.855,668.73 213.855,652.564 168.5,637.5C 159.37,633.443 150.036,629.61 140.5,626C 149.33,628.109 157.996,630.943 166.5,634.5 Z"/></g>
<g><path style="opacity:0.996" fill="#59595a" d="M 75.5,599.5 C 84.0595,607.62 94.0595,613.453 105.5,617C 158.678,636.1 211.678,655.433 264.5,675C 259.601,676.986 259.601,678.486 264.5,679.5C 265.521,680.002 265.688,680.668 265,681.5C 262.8,679.169 260.8,679.169 259,681.5C 258.333,678.833 257.667,678.833 257,681.5C 256.667,680.833 256.333,680.167 256,679.5C 254.612,680.554 253.112,680.72 251.5,680C 253.932,677.989 253.432,676.489 250,675.5C 249.055,675.905 248.388,676.572 248,677.5C 245.616,675.115 242.95,673.115 240,671.5C 239.667,672.167 239.333,672.833 239,673.5C 236.713,672.526 234.713,671.193 233,669.5C 231.984,670.634 231.317,670.301 231,668.5C 230.667,669.5 230.333,670.5 230,671.5C 228.249,668.08 225.582,665.746 222,664.5C 219.905,664.543 217.905,665.543 216,667.5C 215.235,667.43 214.735,667.097 214.5,666.5C 216.344,665.796 216.844,664.463 216,662.5C 205.79,657.818 195.29,653.818 184.5,650.5C 183.893,650.624 183.56,650.957 183.5,651.5C 182.516,655.465 181.516,655.465 180.5,651.5C 178.591,652.348 176.591,652.682 174.5,652.5C 174.505,649 172.838,647.5 169.5,648C 170.833,649.333 172.167,650.667 173.5,652C 172.175,651.852 171.008,652.018 170,652.5C 167.991,651.167 166.324,649.5 165,647.5C 163.732,647.616 162.398,647.949 161,648.5C 158.443,647.458 156.11,646.125 154,644.5C 152.984,645.634 152.317,645.301 152,643.5C 150.684,646.028 149.517,646.028 148.5,643.5C 151.063,640.974 150.397,639.307 146.5,638.5C 146.165,640.003 146.165,641.336 146.5,642.5C 145.201,641.91 144.368,640.91 144,639.5C 143.667,640.5 143.333,641.5 143,642.5C 140.666,638.486 138.499,638.653 136.5,643C 139.648,644.424 142.648,645.924 145.5,647.5C 138.581,646.53 132.248,644.196 126.5,640.5C 129.498,641.342 132.498,641.842 135.5,642C 134.692,641.692 134.025,641.192 133.5,640.5C 134.5,639.667 135.5,638.833 136.5,638C 142.816,638.896 142.982,637.729 137,634.5C 135.548,636.825 133.881,636.825 132,634.5C 128.738,635.841 128.238,635.508 130.5,633.5C 127.798,629.492 126.131,629.492 125.5,633.5C 124.094,632.573 122.594,631.573 121,630.5C 117.738,631.841 117.238,631.508 119.5,629.5C 117.781,626.091 115.614,625.758 113,628.5C 111.989,628.108 111.489,627.441 111.5,626.5C 109.878,627.933 108.545,629.599 107.5,631.5C 106.313,630.347 105.313,630.347 104.5,631.5C 93.527,626.193 85.1937,618.193 79.5,607.5C 78.1534,604.807 76.8201,602.14 75.5,599.5 Z"/></g>
<g><path style="opacity:0.051" fill="#cdc8c6" d="M 145.5,647.5 C 200.346,667.058 255.012,686.891 309.5,707C 312.934,707.558 316.267,708.391 319.5,709.5C 328.46,710.415 337.46,710.748 346.5,710.5C 342.578,711.847 338.411,712.514 334,712.5C 320.765,711.982 307.932,709.482 295.5,705C 287.133,700.92 278.3,697.086 269,693.5C 268.043,695.709 266.876,695.543 265.5,693C 230.559,680.116 195.559,667.116 160.5,654C 156.244,652.369 151.91,651.036 147.5,650C 146.619,649.292 145.953,648.458 145.5,647.5 Z"/></g>
<g><path style="opacity:0.996" fill="#545559" d="M 585.5,324.5 C 584.798,329.391 582.631,333.391 579,336.5C 576.454,346.04 571.787,354.373 565,361.5C 562.649,368.375 559.149,374.542 554.5,380C 553.234,380.309 552.067,380.809 551,381.5C 544.741,390.017 540.075,399.351 537,409.5C 529.933,419.342 523.6,429.675 518,440.5C 516.333,441.5 515,442.833 514,444.5C 510.247,451.964 506.414,459.297 502.5,466.5C 496.824,474.37 491.49,482.703 486.5,491.5C 473.854,510.777 461.687,530.443 450,550.5C 445.085,555.323 441.418,560.989 439,567.5C 437.292,569.543 435.292,571.21 433,572.5C 431.667,576.5 430.333,580.5 429,584.5C 413.749,608.667 398.749,633.001 384,657.5C 377.86,664.973 371.027,671.806 363.5,678C 358.301,681.6 352.635,684.1 346.5,685.5C 344.169,685.498 342.169,686.331 340.5,688C 326.362,691.448 312.362,690.948 298.5,686.5C 255.333,669.777 212,653.444 168.5,637.5C 213.855,652.564 258.855,668.73 303.5,686C 314.101,688.746 324.768,689.08 335.5,687C 325.732,688.175 316.066,687.508 306.5,685C 259.91,667.868 213.244,651.035 166.5,634.5C 166.735,633.903 167.235,633.57 168,633.5C 171.431,634.811 174.931,635.811 178.5,636.5C 222.902,651.967 267.235,667.634 311.5,683.5C 337.493,687.448 359.326,679.781 377,660.5C 415.511,598.139 454.011,535.805 492.5,473.5C 523.264,423.629 554.264,373.962 585.5,324.5 Z"/></g>
<g><path style="opacity:0.995" fill="#4a494a" d="M 73.5,594.5 C 75.934,597.438 78.6007,600.271 81.5,603C 88.0118,605.535 94.0118,608.868 99.5,613C 122.193,621.843 145.193,630.01 168.5,637.5C 212,653.444 255.333,669.777 298.5,686.5C 302.361,689.084 306.694,690.584 311.5,691C 319.5,691.333 327.5,691.667 335.5,692C 335.018,693.008 334.852,694.175 335,695.5C 334.667,695.167 334.333,694.833 334,694.5C 333.5,695.5 333,696.5 332.5,697.5C 333.936,698.934 335.602,700.1 337.5,701C 335.122,701.511 332.788,702.178 330.5,703C 329.167,703.667 329.167,704.333 330.5,705C 326.88,706.831 323.213,708.331 319.5,709.5C 316.267,708.391 312.934,707.558 309.5,707C 255.012,686.891 200.346,667.058 145.5,647.5C 142.648,645.924 139.648,644.424 136.5,643C 138.499,638.653 140.666,638.486 143,642.5C 143.333,641.5 143.667,640.5 144,639.5C 144.368,640.91 145.201,641.91 146.5,642.5C 146.165,641.336 146.165,640.003 146.5,638.5C 150.397,639.307 151.063,640.974 148.5,643.5C 149.517,646.028 150.684,646.028 152,643.5C 152.317,645.301 152.984,645.634 154,644.5C 156.11,646.125 158.443,647.458 161,648.5C 162.398,647.949 163.732,647.616 165,647.5C 166.324,649.5 167.991,651.167 170,652.5C 171.008,652.018 172.175,651.852 173.5,652C 172.167,650.667 170.833,649.333 169.5,648C 172.838,647.5 174.505,649 174.5,652.5C 176.591,652.682 178.591,652.348 180.5,651.5C 181.516,655.465 182.516,655.465 183.5,651.5C 184.774,652.189 184.774,653.023 183.5,654C 185.001,655.252 186.668,656.252 188.5,657C 197.4,659.879 206.066,663.045 214.5,666.5C 214.735,667.097 215.235,667.43 216,667.5C 217.905,665.543 219.905,664.543 222,664.5C 225.582,665.746 228.249,668.08 230,671.5C 230.333,670.5 230.667,669.5 231,668.5C 231.317,670.301 231.984,670.634 233,669.5C 234.713,671.193 236.713,672.526 239,673.5C 239.333,672.833 239.667,672.167 240,671.5C 242.95,673.115 245.616,675.115 248,677.5C 248.388,676.572 249.055,675.905 250,675.5C 253.432,676.489 253.932,677.989 251.5,680C 253.112,680.72 254.612,680.554 256,679.5C 256.333,680.167 256.667,680.833 257,681.5C 257.667,678.833 258.333,678.833 259,681.5C 260.8,679.169 262.8,679.169 265,681.5C 265.688,680.668 265.521,680.002 264.5,679.5C 259.601,678.486 259.601,676.986 264.5,675C 211.678,655.433 158.678,636.1 105.5,617C 94.0595,613.453 84.0595,607.62 75.5,599.5C 74.5592,597.95 73.8925,596.284 73.5,594.5 Z"/></g>
<g><path style="opacity:0.992" fill="#1a1a1a" d="M 183.5,651.5 C 183.56,650.957 183.893,650.624 184.5,650.5C 195.29,653.818 205.79,657.818 216,662.5C 216.844,664.463 216.344,665.796 214.5,666.5C 206.066,663.045 197.4,659.879 188.5,657C 186.668,656.252 185.001,655.252 183.5,654C 184.774,653.023 184.774,652.189 183.5,651.5 Z"/></g>
<g><path style="opacity:0.897" fill="#403f41" d="M 411.5,653.5 C 411.938,653.435 412.272,653.601 412.5,654C 410.335,657.147 408.168,660.314 406,663.5C 405.333,665.5 404.667,667.5 404,669.5C 403.667,669.167 403.333,668.833 403,668.5C 401.952,672.193 400.119,675.359 397.5,678C 397.833,678.333 398.167,678.667 398.5,679C 395.785,679.875 394.452,681.708 394.5,684.5C 391.55,688.928 387.717,692.595 383,695.5C 380.443,694.354 379.11,695.354 379,698.5C 378.586,698.043 378.086,697.709 377.5,697.5C 367.944,703.781 357.61,708.114 346.5,710.5C 337.46,710.748 328.46,710.415 319.5,709.5C 323.213,708.331 326.88,706.831 330.5,705C 329.167,704.333 329.167,703.667 330.5,703C 332.788,702.178 335.122,701.511 337.5,701C 335.602,700.1 333.936,698.934 332.5,697.5C 333,696.5 333.5,695.5 334,694.5C 334.333,694.833 334.667,695.167 335,695.5C 334.852,694.175 335.018,693.008 335.5,692C 327.5,691.667 319.5,691.333 311.5,691C 306.694,690.584 302.361,689.084 298.5,686.5C 312.362,690.948 326.362,691.448 340.5,688C 342.169,686.331 344.169,685.498 346.5,685.5C 346.389,686.117 346.056,686.617 345.5,687C 359.181,683.564 370.681,676.397 380,665.5C 386.697,655.635 393.197,645.635 399.5,635.5C 403.463,641.413 406.963,647.746 410,654.5C 410.383,653.944 410.883,653.611 411.5,653.5 Z"/></g>
</svg>
